<svg width="134" height="20" viewBox="0 0 134 20" fill="none" xmlns="http://www.w3.org/2000/svg">
<path d="M124.309 0H119.217L110.45 18.3333V0H103.903L98.7346 11.8008L93.6617 0H87V19.5594H92.36V10.0958L96.782 19.5594H100.706L105.109 10.1149V19.5594H115.657L121.783 6.14942L128.004 19.5594H133.823L124.309 0Z" fill="black"/>
<path d="M35.4909 10.7854C35.4909 13.3333 34.6677 15.0383 30.6477 15.0383C26.6086 15.0383 25.8046 13.3333 25.8046 10.7854V0H13.7254L0 11.59V19.5594H5.41743V13.5632L8.00172 11.3985L14.8357 19.5594H21.9569L12.0409 8.08429L20.3871 1.13027V11.0345C20.3871 15.1341 22.1674 20 30.6669 20C39.1471 20 40.9274 15.1149 40.9274 11.0345V0.0191553H35.51V10.7854H35.4909Z" fill="black"/>
<path d="M79.4051 10.7854C79.4051 13.3333 78.5819 15.0383 74.5428 15.0383C70.5228 15.0383 69.6997 13.3333 69.6997 10.7854V0H64.2822V11.0153C64.2822 15.1149 66.0625 19.9808 74.5428 19.9808C83.0231 19.9808 84.8225 15.0958 84.8225 11.0153V0H79.4051V10.7854Z" fill="black"/>
<path d="M5.41743 0H0V8.62069L5.41743 4.04214V0Z" fill="black"/>
<path d="M62.6355 6.24521C62.6355 -1.46157e-06 56.7395 0 54.5189 0H43.0332V4.8659H55.7441C56.4906 4.8659 57.2181 5.47893 57.2181 6.32184C57.2181 7.18391 56.5481 7.79694 55.7441 7.79694H43.0332V7.81609V19.5594H48.4506V12.6628H52.3366L57.3903 19.5594H64.1286L58.5198 12.0881C60.7212 11.3602 62.6355 9.44444 62.6355 6.24521Z" fill="black"/>
<path d="M130.612 0.057373H126.994L130.612 7.49032V0.057373Z" fill="black"/>
</svg>
