<svg width="97" height="20" viewBox="0 0 97 20" fill="none" xmlns="http://www.w3.org/2000/svg">
<path d="M5.31676 0.446533H0V8.8684L5.31676 4.40342V0.446533Z" fill="black"/>
<path d="M57.0011 6.0354C56.522 4.83447 55.811 3.77212 54.9146 2.87912C54.0182 1.98613 52.9054 1.27789 51.6071 0.769806C50.3088 0.261723 48.8251 0.0153809 47.1713 0.0153809C46.9704 0.0153809 46.7695 0.0153794 46.5685 0.0307759C46.4294 0.0307759 46.2903 0.0461719 46.1512 0.0615684C46.0894 0.0615684 46.0276 0.0615693 45.9812 0.0769658C45.5794 0.107759 45.193 0.153948 44.8066 0.23093C44.0802 0.354102 43.4001 0.554256 42.751 0.800599C42.5501 0.877581 42.3646 0.969961 42.1637 1.04694L42.1482 1.03155C41.0972 1.50884 40.1699 2.12469 39.4125 2.87912C38.5161 3.77212 37.8052 4.83447 37.326 6.0354C36.8469 7.23632 36.5996 8.54502 36.5996 9.9153C36.5996 9.9461 36.5996 9.97689 36.5996 10.0077C36.5996 10.0385 36.5996 10.0693 36.5996 10.1001C36.5996 11.4857 36.8469 12.7944 37.326 13.98C37.8052 15.1809 38.5007 16.2432 39.4125 17.1362C40.1699 17.8907 41.0818 18.5065 42.1482 18.9838L42.1637 18.9684C42.3491 19.0608 42.5501 19.1378 42.751 19.2148C43.4001 19.4611 44.0802 19.6613 44.8066 19.7844C45.193 19.846 45.5794 19.9076 45.9812 19.9384C46.0276 19.9384 46.0894 19.9384 46.1512 19.9538C46.2903 19.9692 46.4294 19.9692 46.584 19.9846C46.7849 20 46.9858 20 47.1868 20C48.8251 20 50.3243 19.7382 51.6225 19.2456C52.9208 18.7375 54.0336 18.0292 54.9301 17.1362C55.8265 16.2432 56.5375 15.1809 57.0166 13.98C57.4957 12.779 57.743 11.4703 57.743 10.0847C57.743 10.0539 57.743 10.0231 57.743 9.99228C57.743 9.96149 57.743 9.9307 57.743 9.89991C57.7276 8.52962 57.4803 7.22092 57.0011 6.0354ZM52.2562 12.2094C52.0553 12.933 51.7462 13.5797 51.3289 14.1493C50.9116 14.7036 50.3552 15.1655 49.6751 15.4888C48.9951 15.8275 48.1605 15.9969 47.1713 15.9969C46.1821 15.9969 45.3475 15.8275 44.6675 15.4888C43.9874 15.1501 43.431 14.7036 43.0137 14.1493C42.5964 13.5797 42.2719 12.933 42.0864 12.2094C41.9009 11.5011 41.7927 10.7621 41.7927 10.0077C41.7927 9.25326 41.9009 8.51423 42.0864 7.80599C42.2873 7.08235 42.5964 6.4357 43.0137 5.86604C43.431 5.31176 43.9874 4.84987 44.6675 4.52654C45.3475 4.18782 46.1821 4.01846 47.1713 4.01846C48.1605 4.01846 48.9951 4.18782 49.6751 4.52654C50.3552 4.86526 50.9116 5.31176 51.3289 5.86604C51.7462 6.4357 52.0708 7.08235 52.2562 7.80599C52.4417 8.51423 52.5499 9.25326 52.5499 10.0077C52.5499 10.7621 52.4572 11.5011 52.2562 12.2094Z" fill="black"/>
<path d="M32.6581 0.461914C31.4062 2.2787 30.1542 4.08008 28.9023 5.89686C27.6504 4.08008 26.3985 2.2787 25.1621 0.461914C23.8947 0.461914 22.6119 0.461914 21.3445 0.461914H21.0508C20.3553 0.461914 19.6444 0.461914 18.9489 0.461914H13.493L0.015625 11.7783V19.5689H5.33239V13.7183L7.88258 11.5936L14.5904 19.5689H21.5918L11.8238 8.3449L17.496 3.63359C17.5888 3.5566 17.6969 3.47962 17.7897 3.38724L19.8298 1.69363C21.9627 4.61896 24.0956 7.55968 26.2285 10.485V19.5689H31.5453V10.5004C33.9718 7.15937 36.4138 3.81834 38.8404 0.461914C36.7693 0.461914 34.7137 0.461914 32.6581 0.461914Z" fill="black"/>
<path d="M58.2373 4.58802H64.3269V19.7689H69.5354V4.58802H75.6404V0.369385H58.2373V4.58802Z" fill="black"/>
<path d="M96.9844 9.91532C96.9844 8.52964 96.7371 7.22094 96.258 6.02002C95.7788 4.81909 95.0679 3.75674 94.1715 2.86374C93.275 1.97075 92.1622 1.26251 90.8639 0.754426C89.5657 0.246342 88.0819 0 86.4281 0C86.2272 0 86.0263 9.39496e-07 85.8254 0.0153974C85.6863 0.0153974 85.5472 0.0307934 85.4081 0.0461898C85.3463 0.0461898 85.2844 0.0461884 85.2381 0.0615849C84.8362 0.0923778 84.4498 0.138567 84.0634 0.215549C83.337 0.338721 82.657 0.538877 82.0078 0.78522C81.8069 0.862203 81.6214 0.95458 81.4205 1.03156L81.405 1.01617C80.3541 1.49346 79.4267 2.10932 78.6694 2.86374C77.773 3.75674 77.062 4.81909 76.5829 6.02002C76.1037 7.22094 75.8564 8.52964 75.8564 9.89992C75.8564 9.93072 75.8564 9.96151 75.8564 9.9923C75.8564 10.0231 75.8564 10.0539 75.8564 10.0847C75.8564 11.4704 76.1037 12.7791 76.5829 13.9646C77.062 15.1655 77.7575 16.2279 78.6694 17.1209C79.4267 17.8753 80.3386 18.4911 81.405 18.9684L81.4205 18.953C81.606 19.0454 81.8069 19.1224 82.0078 19.1994C82.657 19.4457 83.337 19.6459 84.0634 19.7691C84.4498 19.8306 84.8362 19.8922 85.2381 19.923C85.2844 19.923 85.3463 19.923 85.4081 19.9384C85.5472 19.9538 85.6863 19.9538 85.8408 19.9692C86.0418 19.9846 86.2427 19.9846 86.4436 19.9846C88.0819 19.9846 89.5811 19.7229 90.8794 19.2302C92.1777 18.7221 93.2905 18.0139 94.1869 17.1209C95.0833 16.2279 95.7943 15.1655 96.2734 13.9646C96.7526 12.7637 96.9999 11.455 96.9999 10.0693C96.9999 10.0385 96.9999 10.0077 96.9999 9.97691C96.9844 9.97691 96.9844 9.94611 96.9844 9.91532ZM91.5285 12.2094C91.3276 12.933 91.0185 13.5797 90.6012 14.1493C90.1839 14.7036 89.6275 15.1655 88.9474 15.4888C88.2674 15.8276 87.4328 15.9969 86.4436 15.9969C85.4544 15.9969 84.6198 15.8276 83.9398 15.4888C83.2597 15.1501 82.7033 14.7036 82.286 14.1493C81.8687 13.5797 81.5441 12.933 81.3587 12.2094C81.1732 11.5012 81.065 10.7621 81.065 10.0077C81.065 9.25327 81.1732 8.51424 81.3587 7.806C81.5596 7.08237 81.8687 6.43572 82.286 5.86605C82.7033 5.31178 83.2597 4.84988 83.9398 4.52656C84.6198 4.18784 85.4544 4.01848 86.4436 4.01848C87.4328 4.01848 88.2674 4.18784 88.9474 4.52656C89.6275 4.86528 90.1839 5.31178 90.6012 5.86605C91.0185 6.43572 91.3431 7.08237 91.5285 7.806C91.714 8.51424 91.8222 9.25327 91.8222 10.0077C91.8067 10.7621 91.714 11.5012 91.5285 12.2094Z" fill="black"/>
</svg>
