<svg width="103" height="20" viewBox="0 0 103 20" fill="none" xmlns="http://www.w3.org/2000/svg">
<path d="M39.575 13.7428C39.575 12.6454 39.2965 11.7281 38.7723 11.0237C38.2645 10.3358 37.6421 9.76247 36.9213 9.35297C36.217 8.94347 35.4963 8.63225 34.7919 8.45207C34.1039 8.27189 33.547 8.14085 33.1702 8.07533C31.8107 7.7641 30.7951 7.53479 30.0088 7.35461C29.2226 7.17443 28.6001 6.97786 28.1578 6.79768C27.6664 6.58474 27.4535 6.38818 27.3716 6.27352C27.2405 6.09334 27.1914 5.86402 27.1914 5.5528C27.1914 5.20882 27.2733 4.94674 27.4207 4.7338C27.5845 4.50448 27.8138 4.30792 28.0759 4.1605C28.3544 3.9967 28.6492 3.89842 28.9932 3.8329C29.3372 3.76738 29.6976 3.73462 30.0416 3.73462C30.5821 3.73462 31.0899 3.78376 31.5486 3.86566C31.9908 3.94756 32.384 4.0786 32.728 4.27516C33.0556 4.47172 33.3177 4.71742 33.5142 5.02864C33.7108 5.35624 33.8254 5.76574 33.8582 6.27352L33.8746 6.5356H38.8379V6.25714C38.8379 5.1433 38.5921 4.1605 38.1171 3.37426C37.6421 2.58802 36.9869 1.93282 36.1842 1.42504C35.3816 0.933637 34.4643 0.556898 33.4323 0.343958C32.4167 0.114638 31.3356 0.0163574 30.2381 0.0163574C29.2881 0.0163574 28.3216 0.131016 27.3879 0.360336C26.4215 0.589656 25.5533 0.950018 24.7998 1.44142C24.03 1.93282 23.4075 2.53888 22.9161 3.27598C22.4247 4.02946 22.179 4.91398 22.179 5.91316C22.179 6.81406 22.3755 7.58392 22.7523 8.22274C23.129 8.84518 23.6368 9.38573 24.2429 9.81161C24.849 10.2211 25.537 10.5651 26.2905 10.8272C27.044 11.0892 27.8138 11.3022 28.5837 11.466C29.3372 11.6625 30.1071 11.8263 30.8278 11.9901C31.5486 12.1376 32.2038 12.3177 32.7771 12.5307C33.3177 12.7272 33.7599 12.973 34.1039 13.2514C34.3988 13.5135 34.5462 13.8411 34.5462 14.2506C34.5462 14.6437 34.4315 14.9713 34.2186 15.217C33.9729 15.4955 33.6616 15.7084 33.3013 15.8558C32.9245 16.0196 32.515 16.1343 32.0727 16.1834C31.6305 16.249 31.2046 16.2653 30.7951 16.2653C30.2054 16.2653 29.6484 16.1998 29.1079 16.0852C28.5837 15.9705 28.1251 15.7739 27.7319 15.5282C27.3552 15.2825 27.044 14.9713 26.8146 14.5782C26.5853 14.1851 26.4706 13.71 26.4706 13.1367V12.8583H21.491V13.1367C21.4746 14.3325 21.7203 15.3808 22.2281 16.249C22.7359 17.1171 23.4239 17.8378 24.2757 18.3947C25.1275 18.9517 26.1103 19.3612 27.2241 19.6232C28.3216 19.8853 29.4683 20 30.6149 20C32.04 20 33.334 19.8526 34.4315 19.5413C35.529 19.2465 36.4791 18.8042 37.2326 18.2637C37.9861 17.7068 38.5758 17.0352 38.9689 16.2817C39.3784 15.4627 39.575 14.6273 39.575 13.7428Z" fill="black"/>
<path d="M67.0939 0.704346H61.9668V8.69779L67.0939 4.37347V0.704346Z" fill="black"/>
<path d="M93.925 0.704346H89.0436L81.05 17.2318L73.3676 8.33743L82.5242 0.704346H74.9565L67.0939 7.35463V7.33825L61.9668 11.6626V19.2138H67.0939V13.5463L69.5509 11.4988L76.0212 19.2138H80.0999H85.6365L91.4843 6.51925L97.4304 19.2138H103L93.925 0.704346Z" fill="black"/>
<path d="M52.3517 0.720703H47.4867L46.5694 2.62078L38.543 19.2137H44.0795L46.0616 14.8403L49.9274 6.51923L55.8734 19.2137H61.4264L55.4475 7.01063L52.3517 0.720703Z" fill="black"/>
<path d="M20.2953 5.99509C19.8203 4.79935 19.1159 3.73465 18.2314 2.85012C17.3305 1.9656 16.233 1.26126 14.9389 0.753482C13.6449 0.245701 12.1706 0 10.5326 0C10.336 0 10.1231 9.99513e-07 9.92653 0.016381C9.7791 0.016381 9.64806 0.0327605 9.51702 0.0491405L9.33683 0.0655216C8.9437 0.0982816 8.55057 0.147421 8.17382 0.212941C7.45308 0.343981 6.76511 0.524161 6.12627 0.786241C5.92971 0.868141 5.73314 0.950041 5.53658 1.03194L5.5202 1.01556C4.47185 1.49058 3.55455 2.11302 2.80105 2.8665C1.90013 3.75102 1.21215 4.81572 0.720737 6.01147C0.245705 7.20721 0 8.51761 0 9.89353V9.99181V10.0737C0 11.4496 0.245705 12.76 0.720737 13.9558C1.19577 15.1515 1.90013 16.2162 2.80105 17.1007C3.55455 17.8542 4.47185 18.4767 5.5202 18.9517L5.53658 18.9353C5.73314 19.0172 5.91333 19.1155 6.12627 19.181C6.76511 19.4267 7.45308 19.6233 8.17382 19.7543C8.55057 19.8198 8.9437 19.869 9.33683 19.9017L9.50064 19.9181C9.64806 19.9345 9.7791 19.9345 9.92653 19.9509C10.1231 19.9509 10.3197 19.9672 10.5326 19.9672C12.1706 19.9672 13.6613 19.7052 14.9389 19.1974C16.233 18.6896 17.3469 17.9853 18.2314 17.1007C19.1323 16.2162 19.8203 15.1515 20.2953 13.9558C20.7704 12.76 21.0161 11.4496 21.0161 10.0737V9.99181V9.89353C21.0161 8.48485 20.7704 7.17445 20.2953 5.99509ZM15.5778 12.154C15.3812 12.8747 15.07 13.5299 14.6441 14.1032C14.2182 14.6601 13.6776 15.1188 13.006 15.4464C12.3344 15.774 11.499 15.9541 10.5162 15.9541C9.5334 15.9541 8.698 15.7903 8.0264 15.4464C7.3548 15.1188 6.79787 14.6601 6.38836 14.1032C5.96247 13.5299 5.65124 12.8911 5.45468 12.154C5.27449 11.4496 5.17621 10.7125 5.15983 9.95905C5.15983 9.20557 5.25811 8.46847 5.45468 7.76413C5.65124 7.04341 5.96247 6.38821 6.38836 5.81491C6.79787 5.25799 7.3548 4.79935 8.0264 4.47175C8.698 4.14414 9.5334 3.96396 10.5162 3.96396C11.499 3.96396 12.3344 4.12776 13.006 4.47175C13.6776 4.79935 14.2346 5.25799 14.6441 5.81491C15.07 6.37183 15.3812 7.02703 15.5778 7.76413C15.758 8.46847 15.8562 9.20557 15.8726 9.95905C15.8726 10.7125 15.7743 11.4496 15.5778 12.154Z" fill="black"/>
</svg>
