<svg width="188" height="52" viewBox="0 0 188 52" fill="none" xmlns="http://www.w3.org/2000/svg">
<g clip-path="url(#clip0_4569_13256)">
<path d="M58.5719 8.94419C54.3323 7.53023 49.9162 7 45.5 7C41.0838 7 36.6677 7.53023 32.4281 8.94419C22.7126 11.9488 16 18.4884 16 25.9116C16 36.5163 29.2485 45 45.5 45C61.7515 45 75 36.5163 75 25.9116C74.8234 18.4884 68.2874 11.9488 58.5719 8.94419ZM45.5 36.8698C43.0269 36.8698 41.0838 32.0977 41.0838 26.0884C42.497 26.0884 44.0868 26.2651 45.5 26.2651C46.9132 26.2651 48.503 26.2651 50.0928 26.0884C49.9162 32.0977 47.7964 36.8698 45.5 36.8698ZM41.2605 21.3163C41.9671 17.0744 43.5569 14.0698 45.5 14.0698C47.4431 14.0698 49.0329 17.0744 49.7395 21.3163C48.3263 21.3163 46.9132 21.493 45.5 21.493C43.9102 21.493 42.497 21.493 41.2605 21.3163ZM52.2126 20.9628C51.1527 14.4233 48.503 9.65116 45.3234 9.65116C42.1437 9.65116 39.494 14.4233 38.6108 20.9628C32.6048 20.0791 28.5419 17.9581 28.5419 15.4837C28.5419 12.1256 36.1377 9.47442 45.5 9.47442C54.8623 9.47442 62.4581 12.1256 62.4581 15.4837C62.4581 17.9581 58.2186 20.0791 52.2126 20.9628ZM20.2395 25.2047C20.2395 22.0233 21.476 18.8419 23.5958 16.3674C23.5958 16.5442 23.5958 16.7209 23.5958 16.8977C23.5958 20.9628 29.6018 24.3209 38.2575 25.7349C38.2575 26.0884 38.2575 26.4419 38.2575 26.6186C38.2575 34.2186 40.3772 40.5814 43.2036 42.7023C30.485 41.9954 20.4162 34.3953 20.2395 25.2047ZM47.7964 42.7023C50.7994 40.5814 52.7425 34.0419 52.7425 26.6186V25.7349C61.2216 24.4977 67.4042 20.9628 67.4042 16.8977C67.4042 16.7209 67.4042 16.5442 67.4042 16.3674C69.5239 18.8419 70.7605 22.0233 70.7605 25.3814C70.7605 34.5721 60.6916 42.1721 47.7964 42.7023Z" fill="black"/>
<rect x="87" y="6" width="2" height="40" fill="black"/>
<path d="M113.034 8.88V12.092H109.074V24.5H105.378V12.092H101.374V8.88H113.034ZM118.157 24.72C114.505 24.72 111.975 22.256 111.975 18.912C111.975 15.568 114.505 13.104 118.157 13.104C121.831 13.104 124.339 15.568 124.339 18.912C124.339 22.256 121.831 24.72 118.157 24.72ZM118.157 21.618C119.763 21.618 120.819 20.496 120.819 18.89C120.819 17.306 119.741 16.206 118.179 16.206C116.573 16.206 115.495 17.306 115.495 18.912C115.495 20.54 116.595 21.618 118.157 21.618ZM133.037 13.324H136.557L131.849 25.754C131.035 27.976 129.759 29.142 127.383 29.142C126.701 29.142 125.953 29.054 125.227 28.746L125.623 25.908C125.953 26.018 126.305 26.106 126.723 26.106C127.647 26.106 128.351 25.754 128.747 24.786L129.011 24.104L124.633 13.324H128.351L130.771 20.276L133.037 13.324ZM142.929 24.72C139.277 24.72 136.747 22.256 136.747 18.912C136.747 15.568 139.277 13.104 142.929 13.104C146.603 13.104 149.111 15.568 149.111 18.912C149.111 22.256 146.603 24.72 142.929 24.72ZM142.929 21.618C144.535 21.618 145.591 20.496 145.591 18.89C145.591 17.306 144.513 16.206 142.951 16.206C141.345 16.206 140.267 17.306 140.267 18.912C140.267 20.54 141.367 21.618 142.929 21.618ZM155.601 24.72C153.203 24.72 151.839 23.4 151.839 20.694V16.162H150.057V13.324H151.839V10.244L155.249 9.826V13.324H158.175V16.162H155.249V20.21C155.249 21.244 155.689 21.662 156.459 21.662C157.141 21.662 157.845 21.354 158.329 21.112L158.835 23.818C158.087 24.302 156.921 24.72 155.601 24.72ZM165.238 13.104C168.12 13.104 170.122 14.336 170.122 17.416V24.5H166.734V23.158C166.03 24.06 164.754 24.742 163.192 24.742C161.102 24.742 159.65 23.51 159.65 21.398C159.65 18.758 162.026 17.768 166.712 17.702V17.548C166.712 16.514 166.096 15.876 164.6 15.876C163.236 15.876 162.114 16.382 161.234 16.932L160.464 14.314C161.586 13.654 163.302 13.104 165.238 13.104ZM164.556 22.278C165.678 22.278 166.712 21.618 166.712 20.298V19.726C164.138 19.792 163.192 20.21 163.192 21.178C163.192 21.882 163.676 22.278 164.556 22.278Z" fill="black"/>
<path d="M110.204 43.5H107.513L104.172 38.781V43.5H101.988V34.27H104.172V38.755L107.37 34.27H109.866L106.668 38.625L110.204 43.5ZM115.089 36.896H117.104V43.5H115.089V42.512C114.595 43.292 113.737 43.643 112.801 43.643C111.332 43.643 110.565 42.746 110.565 41.173V36.896H112.58V40.328C112.58 41.394 112.879 41.836 113.698 41.836C114.595 41.836 115.089 41.277 115.089 40.276V36.896ZM122.304 36.753C122.642 36.753 122.902 36.805 123.175 36.896L122.889 38.833C122.707 38.768 122.421 38.716 122.187 38.716C121.186 38.716 120.718 39.301 120.718 40.588V43.5H118.729V36.896H120.718V37.949C121.095 37.078 121.693 36.753 122.304 36.753ZM128.444 36.896H130.459V43.5H128.444V42.512C127.95 43.292 127.092 43.643 126.156 43.643C124.687 43.643 123.92 42.746 123.92 41.173V36.896H125.935V40.328C125.935 41.394 126.234 41.836 127.053 41.836C127.95 41.836 128.444 41.277 128.444 40.276V36.896ZM140.508 36.753C142.042 36.753 142.77 37.637 142.77 39.223V43.5H140.755V40.055C140.755 39.002 140.469 38.547 139.715 38.547C138.883 38.547 138.428 39.119 138.428 40.081V43.5H136.413V40.055C136.413 39.002 136.14 38.547 135.386 38.547C134.554 38.547 134.099 39.119 134.099 40.107V43.5H132.084V36.896H134.099V37.858C134.554 37.117 135.347 36.753 136.179 36.753C137.297 36.753 137.986 37.234 138.272 38.118C138.714 37.182 139.572 36.753 140.508 36.753ZM147.338 36.766C149.041 36.766 150.224 37.494 150.224 39.314V43.5H148.222V42.707C147.806 43.24 147.052 43.643 146.129 43.643C144.894 43.643 144.036 42.915 144.036 41.667C144.036 40.107 145.44 39.522 148.209 39.483V39.392C148.209 38.781 147.845 38.404 146.961 38.404C146.155 38.404 145.492 38.703 144.972 39.028L144.517 37.481C145.18 37.091 146.194 36.766 147.338 36.766ZM146.935 42.187C147.598 42.187 148.209 41.797 148.209 41.017V40.679C146.688 40.718 146.129 40.965 146.129 41.537C146.129 41.953 146.415 42.187 146.935 42.187ZM146.194 35.986L147.767 33.789H149.613L147.845 35.986H146.194Z" fill="black"/>
</g>
<defs>
<clipPath id="clip0_4569_13256">
<rect width="188" height="52" fill="white"/>
</clipPath>
</defs>
</svg>
